<svg width="856" height="296" viewBox="0 0 856 296" fill="none" xmlns="http://www.w3.org/2000/svg">
  <path d="M72.5342 219.958C70.7245 213.113 65.841 206.762 54.884 206.762C41.6464 206.762 35.7713 214.744 35.7713 227.94V245.708C35.7713 259.077 41.3242 268.69 55.5534 268.69C66.0146 268.69 71.5675 263.475 73.3771 257.273H55.0824V230.386H107.711V247.339C107.711 276.35 86.2924 295.897 54.4379 295.897C20.9224 295.897 0 275.535 0 243.928V229.101C0 195.543 22.2362 177.28 54.0908 177.28C85.9453 177.28 104.934 194.875 106.545 219.958H72.559H72.5342Z" fill="black"/>
  <path d="M226.155 293.599H190.185L185.45 276.326H150.299L145.713 293.599H109.743L149.629 179.554H186.244L226.13 293.599H226.155ZM158.008 247.981H177.79L167.974 211.482L158.008 247.981Z" fill="black"/>
  <path d="M230.22 250.082V179.529H266.016V250.082C266.016 261.647 272.71 265.897 281.708 265.897C290.707 265.897 297.4 261.671 297.4 250.082V179.529H333.196V250.082C333.196 278.426 313.736 295.873 281.708 295.873C249.68 295.873 230.22 278.451 230.22 250.082Z" fill="black"/>
  <path d="M350.35 179.529H384.337L418.001 232.981V179.529H452.979V293.574H418.992L385.328 240.123V293.574H350.35V179.529Z" fill="black"/>
  <path d="M494.006 209.678H465.25V179.529H558.731V209.678H529.802V293.599H494.006V209.678Z" fill="black"/>
  <path d="M570.977 179.529H606.773V263.92H653.179V293.574H570.977V179.529Z" fill="black"/>
  <path d="M666.243 179.529H752.709V208.862H702.039V221.243H747.801V250.576H702.039V264.266H752.858V293.599H666.243V179.554V179.529Z" fill="black"/>
  <path d="M790.613 209.678H761.856V179.529H855.338V209.678H826.408V293.599H790.613V209.678Z" fill="black"/>
  <path d="M74.1455 105.147V101.662H107.983V104.133C107.983 110.929 113.833 114.562 121.493 114.562C129.153 114.562 135.153 111.572 135.153 105.443C135.153 102.132 133.368 99.8089 130.269 98.9934L104.091 92.3706C86.1931 87.8978 75.137 79.2981 75.137 58.4413C75.137 34.7673 92.8615 21.5218 120.527 21.5218C146.556 21.5218 163.958 35.2616 163.958 57.1315V60.1217H131.112V57.4775C131.112 52.6834 128.187 49.0261 120.378 49.0261C113.71 49.0261 109.793 51.349 109.793 56.1431C109.793 59.2815 111.255 60.9372 114.032 61.7774L143.482 69.7346C160.884 74.3804 169.833 85.13 169.833 102.675C169.833 125.534 150.646 142.091 121.37 142.091C92.0931 142.091 74.195 128.178 74.195 105.171L74.1455 105.147Z" fill="black"/>
  <path d="M182.798 23.8447H268.843V53.6472H218.42V66.2255H263.959V96.028H218.42V109.941H269.016V139.743H182.823V23.8447H182.798Z" fill="black"/>
  <path d="M283.617 23.8447H369.662V53.6472H319.24V66.2255H364.778V96.028H319.24V109.941H369.835V139.743H283.642V23.8447H283.617Z" fill="black"/>
  <path d="M694.603 139.743H658.806L654.096 122.198H619.118L614.557 139.743H578.786L618.474 23.8447H654.914L694.603 139.743ZM626.778 93.3838H646.461L636.694 56.2914L626.778 93.3838Z" fill="black"/>
  <path d="M716.715 54.4627H688.083V23.8447H781.118V54.4874H752.337V139.743H716.715V54.4627Z" fill="black"/>
  <path d="M421.065 3.90448H465.067V94.0532H505.449V39.8849H543.65V150.668L426.618 126.426L421.065 3.90448Z" fill="#3A6DDC"/>
  <path d="M547.542 155.437L422.875 129.589L417 0H468.959V90.1735H501.532V36.0051H547.542V155.437ZM430.386 123.213L539.758 145.874V43.7647H509.341V97.933H461.175V7.78423H425.156L430.386 123.238V123.213Z" fill="black"/>
  </svg>
  