<svg width="856" height="297" viewBox="0 0 856 297" fill="none" xmlns="http://www.w3.org/2000/svg">
  <path d="M72.5342 220.958C70.7245 214.113 65.841 207.762 54.884 207.762C41.6464 207.762 35.7713 215.744 35.7713 228.94V246.708C35.7713 260.077 41.3242 269.69 55.5534 269.69C66.0146 269.69 71.5675 264.475 73.3771 258.273H55.0824V231.386H107.711V248.339C107.711 277.35 86.2924 296.897 54.4379 296.897C20.9224 296.897 0 276.535 0 244.928V230.101C0 196.543 22.2362 178.28 54.0908 178.28C85.9453 178.28 104.934 195.875 106.545 220.958H72.559H72.5342Z" fill="black"/>
  <path d="M226.155 294.599H190.185L185.45 277.326H150.299L145.713 294.599H109.743L149.629 180.554H186.244L226.13 294.599H226.155ZM158.008 248.981H177.79L167.974 212.482L158.008 248.981Z" fill="black"/>
  <path d="M230.22 251.082V180.529H266.016V251.082C266.016 262.647 272.71 266.897 281.708 266.897C290.707 266.897 297.4 262.671 297.4 251.082V180.529H333.196V251.082C333.196 279.426 313.736 296.873 281.708 296.873C249.68 296.873 230.22 279.451 230.22 251.082Z" fill="black"/>
  <path d="M350.35 180.529H384.337L418.001 233.981V180.529H452.979V294.574H418.992L385.328 241.123V294.574H350.35V180.529Z" fill="black"/>
  <path d="M494.006 210.678H465.25V180.529H558.731V210.678H529.802V294.599H494.006V210.678Z" fill="black"/>
  <path d="M570.977 180.529H606.773V264.92H653.179V294.574H570.977V180.529Z" fill="black"/>
  <path d="M666.243 180.529H752.709V209.862H702.039V222.243H747.801V251.576H702.039V265.266H752.858V294.599H666.243V180.554V180.529Z" fill="black"/>
  <path d="M790.613 210.678H761.856V180.529H855.338V210.678H826.408V294.599H790.613V210.678Z" fill="black"/>
  <path d="M74.1455 106.147V102.662H107.983V105.133C107.983 111.929 113.833 115.562 121.493 115.562C129.153 115.562 135.153 112.572 135.153 106.443C135.153 103.132 133.368 100.809 130.269 99.9934L104.091 93.3706C86.1931 88.8978 75.137 80.2981 75.137 59.4413C75.137 35.7673 92.8615 22.5218 120.527 22.5218C146.556 22.5218 163.958 36.2616 163.958 58.1315V61.1217H131.112V58.4775C131.112 53.6834 128.187 50.0261 120.378 50.0261C113.71 50.0261 109.793 52.349 109.793 57.1431C109.793 60.2815 111.255 61.9372 114.032 62.7774L143.482 70.7346C160.884 75.3804 169.833 86.13 169.833 103.675C169.833 126.534 150.646 143.091 121.37 143.091C92.0931 143.091 74.195 129.178 74.195 106.171L74.1455 106.147Z" fill="black"/>
  <path d="M182.798 24.8447H268.843V54.6472H218.42V67.2255H263.959V97.028H218.42V110.941H269.016V140.743H182.823V24.8447H182.798Z" fill="black"/>
  <path d="M283.617 24.8447H369.662V54.6472H319.24V67.2255H364.778V97.028H319.24V110.941H369.835V140.743H283.642V24.8447H283.617Z" fill="black"/>
  <path d="M694.603 140.743H658.806L654.096 123.198H619.118L614.557 140.743H578.786L618.474 24.8447H654.914L694.603 140.743ZM626.778 94.3838H646.461L636.694 57.2914L626.778 94.3838Z" fill="black"/>
  <path d="M716.715 55.4627H688.083V24.8447H781.118V55.4874H752.337V140.743H716.715V55.4627Z" fill="black"/>
  <path d="M536.345 45.3957C541.749 41.1452 545.244 34.5719 545.244 27.1583C545.244 14.3576 534.833 3.95392 521.967 3.95392C509.101 3.95392 498.69 14.3329 498.69 27.1583C498.69 34.5719 502.185 41.1452 507.589 45.3957C502.185 49.6461 498.69 56.2194 498.69 63.633C498.69 69.3167 500.747 74.5062 504.143 78.5342C500.747 82.5623 498.69 87.7765 498.69 93.4355C498.69 99.6134 501.144 105.223 505.085 109.399C503.201 110.734 501.54 112.365 500.152 114.193C496.607 105.89 488.352 100.083 478.734 100.083C472.636 100.083 467.108 102.431 462.943 106.261C461.952 104.309 460.687 102.505 459.225 100.898C463.067 96.7716 465.447 91.2361 465.447 85.157C465.447 80.2146 463.885 75.6677 461.257 71.9115C463.885 68.1553 465.447 63.5836 465.447 58.6659C465.447 52.5868 463.067 47.0514 459.225 42.9245C463.067 38.7976 465.447 33.2622 465.447 27.183C465.447 14.3823 455.035 3.97863 442.169 3.97863C429.304 3.97863 418.892 14.3576 418.892 27.183C418.892 33.2622 421.272 38.7976 425.114 42.9245C421.272 47.0514 418.892 52.5868 418.892 58.6659C418.892 63.6083 420.454 68.1553 423.082 71.9115C420.454 75.6677 418.892 80.2393 418.892 85.157C418.892 91.2361 421.272 96.7716 425.114 100.898C421.272 105.025 418.892 110.561 418.892 116.64C418.892 129.441 429.304 139.844 442.169 139.844C448.268 139.844 453.796 137.497 457.96 133.666C461.778 141.253 469.636 146.467 478.734 146.467C486.27 146.467 492.963 142.884 497.202 137.324C500.747 145.627 509.002 151.434 518.62 151.434C531.461 151.434 541.898 141.055 541.898 128.23C541.898 122.052 539.444 116.442 535.502 112.266C541.377 108.065 545.244 101.195 545.244 93.4355C545.244 87.7517 543.187 82.5623 539.791 78.5342C543.187 74.5062 545.244 69.292 545.244 63.633C545.244 56.2194 541.749 49.6461 536.345 45.3957Z" fill="#FD9632"/>
  <path d="M518.67 155.363C509.696 155.363 501.466 150.989 496.434 143.897C491.55 148.073 485.353 150.396 478.783 150.396C470.033 150.396 462.026 146.294 456.944 139.424C452.581 142.241 447.474 143.749 442.219 143.749C427.221 143.749 415 131.566 415 116.615C415 110.931 416.785 105.445 420.082 100.874C416.785 96.302 415 90.816 415 85.1323C415 80.4617 416.19 75.9148 418.471 71.8867C416.19 67.834 415 63.3117 415 58.6412C415 52.9575 416.785 47.4714 420.082 42.8997C416.785 38.3281 415 32.842 415 27.1583C415 12.2076 427.221 0.0247118 442.219 0.0247118C457.217 0.0247118 469.438 12.2076 469.438 27.1583C469.438 32.842 467.653 38.3281 464.356 42.8997C467.653 47.4714 469.438 52.9575 469.438 58.6412C469.438 63.3117 468.248 67.8587 465.967 71.8867C468.248 75.9395 469.438 80.4617 469.438 85.1323C469.438 90.3712 467.926 95.4618 465.075 99.8111C469.215 97.3893 473.925 96.1043 478.783 96.1043C485.353 96.1043 491.55 98.4519 496.359 102.505C495.318 99.6134 494.773 96.5491 494.773 93.4107C494.773 88.0977 496.359 82.9082 499.26 78.5095C496.359 74.1108 494.773 68.9213 494.773 63.6083C494.773 56.7878 497.301 50.338 501.838 45.3709C497.301 40.4038 494.773 33.9788 494.773 27.1336C494.773 12.1829 506.994 0 521.992 0C536.989 0 549.211 12.1829 549.211 27.1336C549.211 33.9541 546.682 40.4038 542.145 45.3709C546.682 50.338 549.211 56.7631 549.211 63.6083C549.211 68.9213 547.624 74.1108 544.724 78.5095C547.624 82.9082 549.211 88.0977 549.211 93.4107C549.211 100.725 546.211 107.694 541.03 112.76C544.178 117.282 545.889 122.62 545.889 128.205C545.889 143.156 533.667 155.339 518.67 155.339V155.363ZM498.243 129.564L500.896 135.767C503.945 142.884 510.911 147.48 518.67 147.48C529.329 147.48 537.981 138.831 537.981 128.23C537.981 123.287 536.097 118.592 532.651 114.984L529.528 111.697L533.196 109.053C538.254 105.421 541.278 99.5887 541.278 93.4107C541.278 88.8885 539.667 84.4898 536.741 81.0301L534.609 78.5095L536.741 75.9889C539.667 72.5292 541.278 68.1305 541.278 63.6083C541.278 57.6774 538.576 52.1667 533.891 48.4846L529.949 45.3956L533.891 42.3067C538.601 38.6246 541.278 33.1139 541.278 27.183C541.278 16.5569 532.602 7.9325 521.967 7.9325C511.332 7.9325 502.656 16.5816 502.656 27.183C502.656 33.1139 505.358 38.6246 510.043 42.3067L513.985 45.3956L510.043 48.4846C505.333 52.1667 502.656 57.6774 502.656 63.6083C502.656 68.1305 504.267 72.5292 507.192 75.9889L509.324 78.5095L507.192 81.0301C504.267 84.4898 502.656 88.8885 502.656 93.4107C502.656 98.3531 504.54 103.048 507.986 106.656L511.109 109.943L507.44 112.562C505.878 113.674 504.515 115.009 503.325 116.541L499.21 121.903L496.558 115.701C493.508 108.584 486.543 103.987 478.783 103.987C473.925 103.987 469.264 105.816 465.695 109.127L461.852 112.686L459.497 108.015C458.679 106.409 457.638 104.902 456.399 103.567L453.92 100.898L456.399 98.2295C459.72 94.6463 461.555 90.0005 461.555 85.157C461.555 81.2031 460.34 77.3975 458.084 74.1602L456.498 71.9114L458.084 69.6627C460.365 66.4254 461.555 62.6198 461.555 58.6659C461.555 53.8224 459.72 49.1765 456.399 45.5933L453.92 42.9245L456.399 40.2556C459.72 36.6724 461.555 32.0265 461.555 27.183C461.555 16.5569 452.878 7.9325 442.244 7.9325C431.609 7.9325 422.933 16.5816 422.933 27.183C422.933 32.0265 424.767 36.6724 428.089 40.2556L430.568 42.9245L428.089 45.5933C424.767 49.1765 422.933 53.8224 422.933 58.6659C422.933 62.6198 424.123 66.4254 426.403 69.6627L427.99 71.9114L426.403 74.1602C424.123 77.3975 422.933 81.2031 422.933 85.157C422.933 90.0005 424.767 94.6463 428.089 98.2295L430.568 100.898L428.089 103.567C424.767 107.151 422.933 111.796 422.933 116.64C422.933 127.266 431.609 135.89 442.244 135.89C447.102 135.89 451.738 134.062 455.333 130.75L459.175 127.192L461.53 131.862C464.827 138.436 471.446 142.513 478.783 142.513C484.832 142.513 490.434 139.745 494.128 134.927L498.243 129.564Z" fill="black"/>
  </svg>
  