<svg width="856" height="299" viewBox="0 0 856 299" fill="none" xmlns="http://www.w3.org/2000/svg">
  <path d="M72.5342 222.958C70.7245 216.113 65.841 209.762 54.884 209.762C41.6464 209.762 35.7713 217.744 35.7713 230.94V248.708C35.7713 262.077 41.3242 271.69 55.5534 271.69C66.0146 271.69 71.5675 266.475 73.3771 260.273H55.0824V233.386H107.711V250.339C107.711 279.35 86.2924 298.897 54.4379 298.897C20.9224 298.897 0 278.535 0 246.928V232.101C0 198.543 22.2362 180.28 54.0908 180.28C85.9453 180.28 104.934 197.875 106.545 222.958H72.559H72.5342Z" fill="black"/>
  <path d="M226.155 296.599H190.185L185.45 279.326H150.299L145.713 296.599H109.743L149.629 182.554H186.244L226.13 296.599H226.155ZM158.008 250.981H177.79L167.974 214.482L158.008 250.981Z" fill="black"/>
  <path d="M230.22 253.082V182.529H266.016V253.082C266.016 264.647 272.71 268.897 281.708 268.897C290.707 268.897 297.4 264.671 297.4 253.082V182.529H333.196V253.082C333.196 281.426 313.736 298.873 281.708 298.873C249.68 298.873 230.22 281.451 230.22 253.082Z" fill="black"/>
  <path d="M350.35 182.529H384.337L418.001 235.981V182.529H452.979V296.574H418.992L385.328 243.123V296.574H350.35V182.529Z" fill="black"/>
  <path d="M494.006 212.678H465.25V182.529H558.731V212.678H529.802V296.599H494.006V212.678Z" fill="black"/>
  <path d="M570.977 182.529H606.773V266.92H653.179V296.574H570.977V182.529Z" fill="black"/>
  <path d="M666.243 182.529H752.709V211.862H702.039V224.243H747.801V253.576H702.039V267.266H752.858V296.599H666.243V182.554V182.529Z" fill="black"/>
  <path d="M790.613 212.678H761.856V182.529H855.338V212.678H826.408V296.599H790.613V212.678Z" fill="black"/>
  <path d="M74.1455 108.147V104.662H107.983V107.133C107.983 113.929 113.833 117.562 121.493 117.562C129.153 117.562 135.153 114.572 135.153 108.443C135.153 105.132 133.368 102.809 130.269 101.993L104.091 95.3706C86.1931 90.8978 75.137 82.2981 75.137 61.4413C75.137 37.7673 92.8615 24.5218 120.527 24.5218C146.556 24.5218 163.958 38.2616 163.958 60.1315V63.1217H131.112V60.4775C131.112 55.6834 128.187 52.0261 120.378 52.0261C113.71 52.0261 109.793 54.349 109.793 59.1431C109.793 62.2815 111.255 63.9372 114.032 64.7774L143.482 72.7346C160.884 77.3804 169.833 88.13 169.833 105.675C169.833 128.534 150.646 145.091 121.37 145.091C92.0931 145.091 74.195 131.178 74.195 108.171L74.1455 108.147Z" fill="black"/>
  <path d="M182.798 26.8447H268.843V56.6472H218.42V69.2255H263.959V99.028H218.42V112.941H269.016V142.743H182.823V26.8447H182.798Z" fill="black"/>
  <path d="M283.617 26.8447H369.662V56.6472H319.24V69.2255H364.778V99.028H319.24V112.941H369.835V142.743H283.642V26.8447H283.617Z" fill="black"/>
  <path d="M694.603 142.743H658.806L654.096 125.198H619.118L614.557 142.743H578.786L618.474 26.8447H654.914L694.603 142.743ZM626.778 96.3838H646.461L636.694 59.2914L626.778 96.3838Z" fill="black"/>
  <path d="M716.715 57.4627H688.083V26.8447H781.118V57.4874H752.337V142.743H716.715V57.4627Z" fill="black"/>
  <path d="M542.662 93.8507C542.488 93.6777 541.522 93.0105 541.571 93.134C541.571 93.134 542.439 91.7254 542.612 91.3795C544.124 88.4635 544.967 85.3251 546.132 82.2855C547.248 79.3448 548.661 76.4535 548.636 73.241C548.586 67.9527 545.537 62.5902 541.224 59.6248C541.075 59.5259 540.604 59.1305 540.282 58.9328C540.332 58.8587 540.356 58.8093 540.381 58.7599C540.976 57.9691 541.67 57.2771 542.265 56.5111C544.075 54.1882 545.512 51.3463 546.355 48.5292C547.074 46.1568 547.273 43.0926 546.802 40.6461C546.256 37.9772 544.224 36.3709 541.943 35.0859C541.497 34.8388 541.026 34.6164 540.579 34.3693C540.48 34.3199 540.431 34.2704 540.381 34.2457C540.505 34.0974 540.703 33.6526 540.753 33.5785C541.447 32.417 541.794 30.959 542.141 29.6493C542.885 26.8322 543.505 24.0892 543.579 21.1732C543.653 18.4301 543.455 15.5141 541.298 13.5372C539.662 12.0298 537.035 10.9177 535.002 10.127C533.886 9.68216 532.696 9.48446 531.482 9.5586C530.837 9.60802 530.193 9.70687 529.622 9.9787C529.35 9.28677 527.962 8.02646 527.515 7.60636C526.598 6.74145 525.582 5.95067 524.417 5.43172C519.682 3.25708 512.542 3.05939 508.651 6.98857C508.279 7.38396 507.956 7.82877 507.709 8.32301C507.585 8.57012 507.287 9.08907 507.411 9.18792C506.593 9.41033 505.254 9.06436 504.486 9.03965C502.007 8.96551 499.478 9.68216 497.47 11.1402C495.239 12.7711 493.702 15.2176 492.884 17.8371C491.992 20.7036 492.711 23.3972 494.446 25.7943C495.165 26.7827 495.983 27.6724 496.9 28.4879C497.47 29.0068 498.908 29.8223 499.131 30.5884C499.379 31.478 498.115 33.0101 497.718 33.7268C496.999 34.9624 496.479 36.2968 495.909 37.6065C494.843 40.0777 494.397 42.6477 494.074 45.3413C493.752 47.9608 494.025 50.432 495.636 52.6066C496.479 53.7434 497.47 54.7813 498.462 55.7944C498.933 56.264 499.404 56.7335 499.85 57.2277C499.974 57.3513 500.073 57.4996 500.172 57.6478C500.048 57.7961 499.924 57.9444 499.825 58.0432C499.429 58.488 499.082 59.0317 498.784 59.5753C498.115 60.8109 497.669 62.1701 497.148 63.4551C495.115 68.521 493.603 75.5145 497.024 80.3333C498.016 81.7172 499.231 82.9033 500.421 84.0895C500.321 84.1389 500.222 84.1636 500.148 84.213C499.255 84.7073 498.537 85.4733 497.619 85.9429C495.661 86.9561 494.62 88.1175 493.554 90.0698C492.612 91.7749 491.992 93.3811 491.868 95.3581C491.843 95.877 491.818 96.4207 491.843 96.9396C491.174 96.5195 490.48 96.1736 489.736 95.9017C487.332 95.0615 484.555 95.2098 482.126 95.8523C479.92 96.4454 477.515 97.3845 475.73 98.8672C475.333 99.1884 474.639 100.127 473.945 100.894C473.846 100.177 473.722 99.4602 473.425 98.7683C472.731 97.2362 471.541 95.8276 470.45 94.5426C468.293 92.0467 465.269 90.8358 462.021 90.5146C461.873 90.5146 461.352 90.4404 460.881 90.4404C460.955 90.218 461.005 89.9709 461.079 89.7485C461.6 88.3399 462.17 86.9808 462.691 85.5722C464.029 81.816 464.599 77.9115 463.955 73.9329C463.707 72.3761 463.013 70.9922 462.22 69.6578C461.873 69.04 461.278 68.348 461.228 67.6067C461.203 66.7418 462.096 65.3826 462.492 64.6413C464.153 61.3299 465.74 58.2409 465.789 54.46C465.839 51.2722 464.897 48.8998 462.468 46.7993C461.947 46.3545 461.451 45.885 460.931 45.4155C460.807 45.3166 460.683 45.1684 460.584 45.0201C460.584 45.0201 460.633 44.9707 460.658 44.8965C461.303 43.6362 462.939 42.7466 463.905 41.7581C466.558 39.0645 467.153 34.9376 465.566 31.5027C464.748 29.7482 463.41 28.1913 461.922 26.9804C461.154 26.3874 460.41 25.646 459.567 25.1765C459.642 24.8799 459.691 24.5587 459.716 24.2374C459.815 23.0018 459.741 21.7415 459.716 20.5059C459.691 17.9853 459.022 15.8601 457.262 14.0067C455.725 12.3757 453.742 11.412 451.511 11.239C449.751 11.0907 448.338 11.5355 446.999 12.3016C446.28 10.9919 445.685 9.65745 444.173 8.74311C442.14 7.53223 439.537 7.21097 437.207 7.40867C434.927 7.58165 433.414 8.61955 431.605 9.87985C430.737 10.4729 429.894 11.0166 429.374 11.9804C429.151 12.4005 429.002 12.87 428.927 13.3395C428.878 13.6113 428.853 13.8832 428.853 14.155C428.853 14.2786 428.853 14.3774 428.853 14.4515C428.828 14.501 428.804 14.5257 428.779 14.5751C426.696 14.8469 425.011 16.4532 423.474 17.8124C421.54 19.5175 419.978 21.1237 418.888 23.5208C417.648 26.2885 417.252 29.0068 417.301 32.0217C417.326 33.5538 417.127 35.2589 417.4 36.7663C417.475 37.137 417.598 37.483 417.722 37.8042C417.499 37.8784 417.301 37.9525 417.103 38.0513C416.037 38.6197 415.417 39.7565 415.169 40.9179C414.649 43.4138 415.12 46.3545 415.095 48.8998C415.095 54.2129 414.723 60.2426 419.433 63.8752C420.325 64.5671 421.292 65.0614 422.234 65.6545C422.557 65.8522 422.879 66.2228 423.226 66.4699C422.631 66.7912 421.862 67.5573 421.342 67.9279C420.499 68.4963 419.706 69.0894 419.061 69.8555C415.839 73.6364 415.095 80.1356 415.665 84.905C416.012 87.8951 416.904 90.7864 418.466 93.3811C419.235 94.6414 420.053 96.0253 421.094 97.0632C421.193 97.162 421.317 97.2362 421.416 97.335C418.739 99.4108 416.557 102.055 415.615 105.416C414.971 107.665 414.872 110.185 414.847 112.533C414.797 114.88 415.219 117.03 417.004 118.711C418.714 120.292 420.92 121.38 423.102 122.146C423.176 122.146 423.325 122.245 423.474 122.294C422.581 123.258 421.863 124.79 421.392 125.902C419.631 129.979 420.251 135.391 423.722 138.456C425.581 140.111 428.184 140.877 430.638 140.531C431.902 140.358 433.092 139.889 434.158 139.197C434.207 139.147 434.406 139.049 434.604 138.925C434.728 139.049 434.852 139.172 434.877 139.222C437.703 143.002 441.397 147.772 446.801 147.154C449.156 146.882 450.296 145.276 451.337 143.373C451.486 143.077 451.684 142.805 451.858 142.508C452.155 142.904 452.477 143.274 452.577 143.423C456.245 148.044 462.914 149.255 468.541 148.785C469.88 148.662 471.144 148.241 472.136 147.278C472.334 147.105 472.557 146.858 472.755 146.635C473.301 147.278 474.044 147.97 474.466 148.39C475.507 149.428 476.796 150.564 478.085 151.306C480.366 152.615 483.886 152.442 486.39 151.923C487.877 151.627 489.017 150.811 490.058 149.848C490.158 149.947 490.232 150.07 490.331 150.169C491.124 150.984 492.141 151.405 493.132 151.923C495.586 153.184 497.942 154.444 500.668 155.087C502.676 155.556 505.18 155.803 507.114 154.938C508.031 154.518 508.774 153.876 509.468 153.159C509.642 152.961 509.816 152.739 510.014 152.517C510.807 153.48 511.749 154.296 512.989 154.765C514.079 155.185 515.17 155.26 516.31 155.408C517.674 155.606 519.062 155.976 520.45 155.976C525.805 155.902 530.936 151.578 533.043 146.956C533.143 146.759 533.266 146.561 533.316 146.363C533.316 146.339 533.316 146.314 533.341 146.314C533.638 146.339 534.283 146.289 534.407 146.264C535.894 146.017 537.034 145.177 538.001 144.04C539.761 141.94 541.298 139.592 542.364 137.072C543.505 134.378 543.976 131.586 544.05 128.67C544.1 127.212 544.199 125.63 543.901 124.197C543.777 123.579 543.554 122.961 543.257 122.418C543.108 122.146 542.216 120.96 542.216 120.96C542.216 120.663 542.984 119.996 543.182 119.749C543.554 119.23 543.876 118.686 544.174 118.118C544.918 116.684 545.562 115.152 546.157 113.645C547.248 110.877 547.991 107.788 547.967 104.798C547.917 101.981 546.578 99.6579 545.116 97.335C544.372 96.1736 543.653 94.938 542.662 93.9989V93.8507ZM424.441 122.541C424.565 122.912 424.54 122.665 424.441 122.541Z" fill="#EA6FC8"/>
  <path d="M520.401 159.708C519.137 159.708 517.996 159.51 517.005 159.312C516.608 159.238 516.212 159.164 515.84 159.115L515.27 159.04C514.179 158.917 512.964 158.744 511.625 158.225C511.129 158.027 510.659 157.805 510.188 157.533C509.741 157.83 509.27 158.101 508.725 158.349C506.296 159.411 503.321 159.535 499.825 158.719C496.801 158.003 494.273 156.718 491.843 155.457L491.05 155.037C490.728 154.889 490.406 154.716 490.034 154.518C489.216 154.963 488.274 155.334 487.208 155.556C485.175 155.976 480.044 156.668 476.226 154.493C475.011 153.802 473.747 152.838 472.408 151.577C471.367 152.072 470.177 152.368 468.888 152.467C465.542 152.764 458.031 152.813 452.354 148.414C451.189 149.576 449.552 150.589 447.247 150.861C440.876 151.602 436.488 147.352 433.513 143.67C432.72 143.942 431.927 144.139 431.109 144.263C427.539 144.732 423.796 143.62 421.143 141.248C416.706 137.319 415.318 130.226 417.847 124.345C417.896 124.246 417.946 124.123 417.995 124.024C416.632 123.282 415.392 122.418 414.376 121.454C411.253 118.562 410.955 114.905 411.005 112.409C411.054 109.913 411.153 107.047 411.922 104.328C412.69 101.61 414.103 99.1143 416.161 96.8902C415.814 96.3712 415.516 95.8523 415.219 95.3581C413.409 92.3679 412.294 89.0071 411.847 85.3003C411.203 79.8143 411.972 72.2278 416.136 67.3348C416.359 67.0877 416.582 66.8406 416.805 66.6182C411.178 62.0712 411.228 55.2755 411.252 49.8142V48.8504C411.252 48.109 411.228 47.3183 411.178 46.5275C411.079 44.5505 410.955 42.3018 411.401 40.1024C411.724 38.5456 412.418 37.137 413.409 36.0744C413.335 35.1353 413.36 34.221 413.409 33.3808C413.409 32.936 413.434 32.4912 413.409 32.0463C413.335 28.216 413.955 25.0035 415.318 21.9392C416.731 18.7761 418.813 16.7497 420.846 14.9458L421.119 14.6986C422.234 13.7102 423.598 12.4746 425.308 11.6344C425.457 11.0907 425.68 10.5965 425.928 10.127C426.87 8.42184 428.208 7.5075 429.2 6.81557C431.282 5.38228 433.464 3.85015 436.811 3.57832C440.281 3.30649 443.553 3.97371 446.057 5.45642C447.123 6.09892 447.916 6.84028 448.536 7.60635C449.577 7.38394 450.643 7.33452 451.734 7.40865C454.932 7.65577 457.807 9.03963 459.989 11.3625C462.294 13.809 463.459 16.7991 463.484 20.4565V21.2967C463.509 21.9886 463.534 22.6806 463.509 23.3972C463.559 23.4466 463.608 23.4713 463.658 23.5208L464.228 23.9903C466.31 25.646 467.946 27.6724 468.963 29.8964C471.243 34.8141 470.276 40.6461 466.558 44.427C466.385 44.6 466.211 44.7729 466.013 44.9459C468.467 47.5407 469.582 50.6049 469.533 54.4847C469.483 59.0811 467.674 62.6643 465.938 66.124C465.715 66.5441 465.591 66.8159 465.418 67.0877C465.368 67.1619 465.319 67.2854 465.244 67.3843C465.319 67.4831 465.368 67.582 465.442 67.7055C466.335 69.2129 467.302 71.0663 467.649 73.2904C468.368 77.6644 467.872 82.2114 466.211 86.8325C466.137 87.0302 466.087 87.2032 466.013 87.4008C468.913 88.2905 471.392 89.8473 473.251 92.022C473.896 92.7633 474.59 93.5788 475.21 94.4684C476.821 93.5294 478.73 92.7633 481.01 92.1208C483.588 91.4042 486.216 91.2559 488.571 91.6513C488.918 90.5145 489.439 89.3778 490.108 88.1669C491.323 85.9676 492.637 84.4601 494.421 83.2987C494.223 83.0516 494.025 82.7797 493.827 82.4832C490.306 77.5408 490.207 70.2508 493.504 61.9724L493.876 61.0086C494.223 60.0696 494.644 59.007 495.165 57.9691C494.248 57.03 493.306 55.9921 492.438 54.8307C490.405 52.0876 489.662 48.8257 490.158 44.8224C490.48 42.1782 490.951 39.1139 492.29 36.0497L492.612 35.2836C493.108 34.1469 493.603 32.9607 494.322 31.7498C494.372 31.6757 494.422 31.5768 494.471 31.5027C494.397 31.4286 494.322 31.3791 494.248 31.305C493.132 30.3165 492.141 29.2045 491.273 28.0183C488.67 24.4598 487.927 20.5553 489.141 16.6756C490.257 13.0677 492.389 10.0034 495.14 8.00174C497.818 6.07421 501.139 5.06103 504.535 5.15987C504.684 5.15987 504.858 5.15987 505.031 5.18459C505.279 4.83862 505.552 4.54208 505.825 4.24554C511.006 -0.993371 519.855 -0.894524 525.929 1.89791C527.367 2.56513 528.73 3.50418 530.069 4.7892C530.416 5.11045 530.738 5.40699 531.011 5.70353C531.06 5.70353 531.085 5.70353 531.135 5.70353C532.87 5.60469 534.605 5.87652 536.291 6.51903C538.844 7.5075 541.72 8.7678 543.802 10.6953C547.521 14.1056 547.397 19.1221 547.322 21.2473C547.223 24.6575 546.504 27.7218 545.76 30.5883L545.686 30.8355C545.537 31.3791 545.389 31.9969 545.19 32.6394C547.372 34.0974 549.752 36.3215 550.471 39.88C551.066 42.8701 550.867 46.5275 549.95 49.6165C549.008 52.7301 547.496 55.7944 545.637 58.315C549.777 62.1948 552.355 67.7549 552.404 73.1915C552.429 76.6512 551.239 79.666 550.173 82.3349L549.653 83.6447C549.281 84.6084 548.958 85.5722 548.611 86.5112C547.967 88.3893 547.297 90.3416 546.355 92.2691C547 93.0599 547.496 93.8754 547.967 94.6167L548.289 95.1109C550 97.8045 551.685 100.745 551.76 104.576C551.809 107.739 551.09 111.297 549.702 114.88C549.157 116.24 548.438 118.019 547.545 119.724C547.372 120.045 547.149 120.465 546.876 120.935C547.223 121.676 547.496 122.467 547.669 123.258C548.041 124.938 547.967 126.569 547.917 127.978V128.645C547.793 132.327 547.149 135.539 545.909 138.455C544.769 141.149 543.083 143.818 540.951 146.388C539.514 148.118 537.803 149.255 535.894 149.749C533.019 154.864 527.144 159.634 520.5 159.708C520.451 159.708 520.401 159.708 520.376 159.708H520.401ZM509.89 146.388L512.989 149.971C513.485 150.564 513.906 150.91 514.426 151.108C514.848 151.281 515.493 151.355 516.212 151.454L516.881 151.553C517.401 151.627 517.897 151.726 518.418 151.8C519.186 151.948 519.88 152.047 520.45 152.072C524.268 152.022 528.11 148.587 529.598 145.301L531.085 142.162L532.275 142.261L533.415 141.52L534.481 142.088C534.655 141.965 534.853 141.767 535.076 141.495C536.737 139.518 538.001 137.492 538.869 135.465C539.737 133.439 540.183 131.19 540.257 128.447V127.731C540.307 126.643 540.356 125.63 540.183 124.864C540.133 124.592 540.034 124.32 539.885 124.049C539.786 123.9 539.191 123.134 539.191 123.134L538.324 121.997L538.398 120.589C538.497 118.958 539.513 117.92 540.133 117.277C540.356 116.981 540.579 116.586 540.778 116.19C541.497 114.806 542.092 113.348 542.587 112.088C543.629 109.444 544.149 106.874 544.124 104.699C544.1 102.87 543.083 101.141 541.869 99.2378L541.522 98.6942C541.075 97.9775 540.654 97.3103 540.232 96.8408L538.671 96.6925L536.985 91.4783L538.745 90.3663C538.919 90.0697 539.092 89.7732 539.166 89.6249C540.059 87.8951 540.703 86.017 541.398 84.04C541.769 83.0022 542.117 81.9642 542.513 80.9264L543.059 79.5178C543.926 77.3184 544.769 75.2426 544.744 73.2657C544.719 69.3365 542.389 65.1108 538.993 62.7879C538.919 62.7384 538.77 62.6149 538.596 62.4913C538.497 62.4172 538.373 62.3183 538.249 62.2195L535.25 60.2425L536.886 57.0547C537.01 56.8076 537.159 56.6099 537.233 56.5111C537.63 55.9921 538.026 55.5226 538.448 55.0531C538.696 54.7565 538.943 54.4847 539.191 54.1881C540.679 52.2853 541.893 49.913 542.612 47.4665C543.182 45.6131 543.306 43.1667 542.959 41.4121C542.811 40.6461 542.34 39.7564 539.985 38.422C539.687 38.249 539.39 38.1007 539.092 37.9525L538.373 37.5818L537.828 37.1617L534.804 34.6164L537.382 31.6262C537.753 31.0085 538.026 29.9706 538.274 28.9574L538.348 28.7103C538.968 26.2885 539.588 23.6937 539.662 21.0743C539.737 18.4796 539.439 17.0957 538.596 16.3543C537.307 15.1682 534.531 14.0808 533.49 13.6855C532.87 13.4383 532.25 13.3395 531.606 13.3642C531.234 13.3642 531.085 13.4383 531.085 13.4383L527.416 14.9952L526.053 11.6591C525.855 11.4367 525.507 11.066 524.962 10.5718L524.764 10.3988C524.045 9.70685 523.376 9.21262 522.706 8.91607C519.756 7.55692 515.517 7.23567 512.716 8.64424L515.567 10.9424L508.304 12.8947C506.99 13.2406 505.701 13.0677 504.759 12.9441C504.585 12.9194 504.412 12.8947 504.263 12.87C502.602 12.8453 500.916 13.3148 499.627 14.2538C498.214 15.267 497.099 16.9474 496.454 18.9985C496.157 19.9623 495.934 21.4697 497.446 23.5455C497.991 24.2868 498.636 25.0035 499.355 25.646C499.429 25.7201 499.578 25.7943 499.702 25.9178C500.693 26.6345 502.181 27.7465 502.701 29.5505C503.37 31.9475 501.957 34.048 501.115 35.3083L500.891 35.6543C500.42 36.4451 500.049 37.3594 499.627 38.3232L499.28 39.1386C498.437 41.0662 498.041 43.1914 497.718 45.8108C497.47 47.8125 497.719 49.1964 498.561 50.3331C499.28 51.3216 500.197 52.2606 501.065 53.1255L501.288 53.3727C501.71 53.7928 502.106 54.2129 502.528 54.6577C502.751 54.9048 502.949 55.1766 503.147 55.4237L504.932 57.8702L502.577 60.5885C502.453 60.7121 502.28 60.9592 502.032 61.404C501.66 62.0959 501.338 62.9114 501.016 63.8011L500.594 64.8884C499.503 67.582 497.297 74.2789 500.049 78.1339C500.817 79.2212 501.883 80.2591 502.974 81.3465L506.866 85.1768L501.759 87.6727C501.759 87.6727 501.412 87.9198 501.189 88.1175C500.693 88.4882 500.073 88.9577 499.305 89.3778C498.14 89.9956 497.594 90.5393 496.801 91.9725C496.033 93.3811 495.661 94.4437 495.587 95.6546C495.562 96.0747 495.562 96.5195 495.562 96.9396L495.636 103.982L489.662 100.226C489.191 99.9298 488.77 99.7321 488.323 99.5591C486.886 99.0648 484.952 99.0648 482.994 99.6085C480.787 100.202 479.126 100.968 478.06 101.857C477.986 101.931 477.788 102.179 477.564 102.45C477.267 102.796 476.945 103.167 476.647 103.513L471.169 109.543L470.004 101.511C469.954 101.165 469.88 100.622 469.781 100.449C469.285 99.3861 468.293 98.1752 467.401 97.1373C466.062 95.5805 464.079 94.6661 461.501 94.3943C461.352 94.3943 461.005 94.3449 460.683 94.3449L455.452 94.246L457.113 89.3037C457.212 88.9577 457.287 88.7353 457.361 88.5376C457.609 87.8457 457.882 87.1785 458.154 86.5112C458.427 85.8193 458.7 85.1027 458.972 84.386C460.187 81.0005 460.559 77.7138 460.063 74.6495C459.914 73.6611 459.369 72.6479 458.799 71.6841L458.625 71.4123C458.154 70.6957 457.361 69.4848 457.312 67.8785C457.237 66.124 458.105 64.5918 458.724 63.4798L458.972 63.035C460.608 59.773 461.823 57.3513 461.873 54.5094C461.898 52.3348 461.377 51.0992 459.865 49.7894C459.295 49.2952 458.774 48.8257 458.229 48.3314C457.931 48.0596 457.584 47.7136 457.262 47.2194L455.601 44.6247L457.46 42.7713C458.253 41.511 459.344 40.6461 460.261 39.9294C460.559 39.6823 460.881 39.4599 461.104 39.2128C462.592 37.7054 462.963 35.3083 462.021 33.2572C461.501 32.1452 460.584 31.0332 459.468 30.1188L458.749 29.5257C458.328 29.1551 457.882 28.8091 457.559 28.6114L455.155 27.2028L455.775 24.4845C455.799 24.3363 455.824 24.188 455.849 24.0397C455.923 23.2489 455.898 22.4087 455.849 21.5932V20.6789C455.799 18.9244 455.403 17.7876 454.411 16.7497C453.519 15.8107 452.428 15.2917 451.139 15.1929C450.346 15.1435 449.652 15.2917 448.833 15.7613L445.437 17.7135L443.305 13.809C442.76 12.7958 442.537 12.4004 442.116 12.178C441 11.5108 439.29 11.2143 437.43 11.3625C436.216 11.4614 435.373 12.0051 433.712 13.1665C433.241 13.4878 432.745 13.8337 432.646 13.9573L432.72 15.7118L431.803 16.898L430.936 18.2324L429.175 18.4548C428.407 18.5537 427.192 19.641 426.225 20.5059L425.928 20.753C424.094 22.384 423.028 23.5208 422.309 25.1517C421.392 27.2028 420.995 29.328 421.045 32.0216C421.045 32.5653 421.045 33.1337 421.045 33.6773C421.02 34.6164 420.995 35.506 421.119 36.1485L422.829 40.0036L418.962 41.4616C418.962 41.4616 418.937 41.5851 418.913 41.7087C418.665 42.9443 418.739 44.6 418.838 46.2062C418.888 47.1453 418.937 48.0596 418.937 48.9492V49.9624C418.888 55.2013 419.061 58.8093 421.788 60.8603C422.259 61.231 422.755 61.5029 423.275 61.7994C423.622 62.0218 423.994 62.2195 424.341 62.4419C424.688 62.6643 425.06 62.9609 425.408 63.2821L425.606 63.4551L430.117 67.063L425.06 69.8555C425.06 69.8555 424.738 70.1273 424.54 70.3003C424.168 70.5968 423.821 70.8933 423.548 71.091C422.805 71.61 422.334 71.9807 421.987 72.3761C419.607 75.1932 419.012 80.6298 419.458 84.4849C419.78 87.1043 420.549 89.4272 421.738 91.4289C422.383 92.5162 423.028 93.5541 423.672 94.246L423.846 94.3696L427.564 97.4091L423.746 100.35C421.416 102.129 419.929 104.18 419.284 106.454C418.987 107.516 418.838 108.727 418.739 109.963L426.944 119.625L429.795 120.861L428.878 121.899L428.977 122.022L427.936 124.469L426.796 126.742L425.209 126.643C425.11 126.866 424.986 127.113 424.862 127.385C423.796 129.88 423.994 133.612 426.201 135.564C427.217 136.454 428.705 136.899 430.068 136.726C430.712 136.652 431.357 136.38 432.026 135.96L435.199 134.007L437.356 136.306C437.653 136.602 437.827 136.849 437.926 136.948C440.603 140.531 443.256 143.694 446.33 143.348C446.652 143.299 446.974 143.274 447.941 141.52C448.065 141.297 448.214 141.075 448.338 140.853L451.387 135.688L455.576 141.026C459.022 145.375 466.112 145.128 468.194 144.93C469.087 144.856 469.359 144.584 469.458 144.485C469.582 144.362 469.731 144.213 469.88 144.065L472.879 140.68L475.755 144.164C476.077 144.535 476.499 144.93 476.821 145.251L477.217 145.647C478.556 146.981 479.473 147.624 480.019 147.945C481.035 148.538 483.365 148.612 485.671 148.143C486.216 148.044 486.737 147.698 487.53 146.981L490.554 144.263L493.182 147.549C493.43 147.772 493.951 148.019 494.471 148.266L495.339 148.711C497.545 149.848 499.479 150.836 501.586 151.33C503.296 151.726 504.784 151.775 505.602 151.404C505.899 151.281 506.246 150.984 506.692 150.515C506.791 150.416 506.866 150.292 506.965 150.194L509.915 146.462L509.89 146.388ZM525.954 11.3131C525.954 11.3131 525.979 11.412 526.003 11.4367L525.954 11.3131ZM507.436 8.71838L510.931 10.3246C510.931 10.3246 511.03 10.1022 511.055 9.97868L507.436 8.71838Z" fill="black"/>
  </svg>
  