<svg width="856" height="295" viewBox="0 0 856 295" fill="none" xmlns="http://www.w3.org/2000/svg">
  <path d="M72.5342 218.958C70.7245 212.113 65.841 205.762 54.884 205.762C41.6464 205.762 35.7713 213.744 35.7713 226.94V244.708C35.7713 258.077 41.3242 267.69 55.5534 267.69C66.0146 267.69 71.5675 262.475 73.3771 256.273H55.0824V229.386H107.711V246.339C107.711 275.35 86.2924 294.897 54.4379 294.897C20.9224 294.897 0 274.535 0 242.928V228.101C0 194.543 22.2362 176.28 54.0908 176.28C85.9453 176.28 104.934 193.875 106.545 218.958H72.559H72.5342Z" fill="black"/>
  <path d="M226.155 292.599H190.185L185.45 275.326H150.299L145.713 292.599H109.743L149.629 178.554H186.244L226.13 292.599H226.155ZM158.008 246.981H177.79L167.974 210.482L158.008 246.981Z" fill="black"/>
  <path d="M230.22 249.082V178.529H266.016V249.082C266.016 260.647 272.71 264.897 281.708 264.897C290.707 264.897 297.4 260.671 297.4 249.082V178.529H333.196V249.082C333.196 277.426 313.736 294.873 281.708 294.873C249.68 294.873 230.22 277.451 230.22 249.082Z" fill="black"/>
  <path d="M350.35 178.529H384.337L418.001 231.981V178.529H452.979V292.574H418.992L385.328 239.123V292.574H350.35V178.529Z" fill="black"/>
  <path d="M494.006 208.678H465.25V178.529H558.731V208.678H529.802V292.599H494.006V208.678Z" fill="black"/>
  <path d="M570.977 178.529H606.773V262.92H653.179V292.574H570.977V178.529Z" fill="black"/>
  <path d="M666.243 178.529H752.709V207.862H702.039V220.243H747.801V249.576H702.039V263.266H752.858V292.599H666.243V178.554V178.529Z" fill="black"/>
  <path d="M790.613 208.678H761.856V178.529H855.338V208.678H826.408V292.599H790.613V208.678Z" fill="black"/>
  <path d="M540.511 139.905C540.759 139.534 541.006 139.163 541.23 138.793C545.27 132.219 546.336 124.262 546.51 116.552C547.154 86.1564 543.709 55.9092 543.461 25.4889C543.411 19.4098 543.089 12.6387 538.775 8.31416C534.685 4.212 528.265 3.66834 522.489 3.91546C516.663 4.18729 510.044 5.57115 507.144 10.6124C505.657 13.2071 505.433 16.3208 505.31 19.3109C504.417 38.4132 505.508 57.5649 506.078 76.6671C506.202 80.9422 506.252 85.4892 503.996 89.1466C501.914 92.4827 498.146 94.509 494.303 95.3245C487.883 96.7084 480.669 95.8929 474.372 94.1878C462.349 90.9505 463.019 83.2899 463.267 72.7873C463.44 65.5221 463.614 58.2321 463.812 50.9668C464.06 41.5516 464.308 32.0869 463.093 22.7459C462.25 16.222 460.242 9.67331 453.921 6.53491C445.344 2.28447 432.726 2.95169 427.669 12.0209C420.406 25.0441 424.471 46.3951 424.57 60.6785C424.719 79.0394 424.868 97.4003 424.992 115.761C425.116 131.75 440.113 134.097 452.731 136.42C468.224 139.287 483.668 142.475 499.112 145.588C513.49 148.48 530.669 154.287 540.486 139.905H540.511Z" fill="#F27044"/>
  <path d="M521.646 153.15C515.374 153.15 508.954 151.742 503.128 150.457C501.517 150.111 499.93 149.765 498.369 149.443L490.138 147.788C477.669 145.267 464.754 142.648 452.037 140.3L451.046 140.127C438.452 137.804 421.224 134.641 421.075 115.811L420.654 60.7279C420.629 57.3671 420.381 53.5121 420.108 49.4593C419.216 36.1149 418.199 20.9913 424.248 10.1181C430.346 -0.853959 445.319 -2.11426 455.681 3.0258C464.159 7.22681 466.217 15.9995 467.01 22.2516C468.249 31.9139 468.002 41.6504 467.754 51.0656C467.555 58.3309 467.382 65.6209 467.208 72.8861V74.0476C466.911 84.7231 467.208 88.2075 475.414 90.4068C482.032 92.1861 488.453 92.5815 493.485 91.4942C496.733 90.8022 499.36 89.196 500.649 87.0954C502.236 84.5501 502.261 81.0658 502.137 76.8153C502.013 72.8861 501.889 68.9817 501.74 65.0525C501.195 50.0277 500.649 34.484 501.368 19.1626C501.542 15.5053 501.839 11.9715 503.723 8.70952C506.772 3.39648 513.019 0.48048 522.291 0.0603787C527.943 -0.18674 536.049 0.0850906 541.552 5.59583C546.807 10.8595 547.303 18.3224 547.378 25.4889C547.502 38.7344 548.22 52.2023 548.939 65.2255C549.857 82.0295 550.799 99.4267 550.452 116.651C550.328 123.15 549.559 132.763 544.601 140.868C544.329 141.313 544.056 141.733 543.758 142.153C537.933 150.704 529.951 153.175 521.646 153.175V153.15ZM443.113 7.94345C438.155 7.94345 433.42 9.79684 431.14 13.9237C426.206 22.7706 427.148 36.6586 427.966 48.9404C428.239 53.1167 428.512 57.0706 428.536 60.6785L428.958 115.761C429.057 127.227 438.328 129.797 452.483 132.417L453.475 132.59C466.241 134.962 479.181 137.582 491.7 140.102L499.93 141.758C501.517 142.079 503.153 142.425 504.814 142.796C520.035 146.132 530.521 147.59 537.263 137.705C537.486 137.384 537.685 137.063 537.883 136.742C540.907 131.799 542.395 125.349 542.593 116.453C542.94 99.5255 541.998 82.2766 541.106 65.6209C540.387 52.4989 539.643 38.9321 539.544 25.5136C539.494 19.9534 539.172 14.2697 535.999 11.0819C533.495 8.56125 529.256 7.54806 522.687 7.84461C516.291 8.14115 512.201 9.72271 510.59 12.5646C509.573 14.3191 509.4 16.7409 509.276 19.4839C508.582 34.484 509.127 49.8547 509.648 64.7312C509.796 68.6604 509.921 72.6143 510.044 76.5435C510.168 80.7198 510.342 86.4282 507.392 91.1976C504.938 95.1762 500.6 97.9934 495.171 99.1548C487.164 100.86 478.909 99.4514 473.381 97.9687C458.829 94.0642 459.077 83.7841 459.325 73.8499V72.6885C459.523 65.3985 459.697 58.1332 459.895 50.8432C460.143 41.7245 460.366 32.3093 459.201 23.2154C458.284 16.0242 456.103 11.9715 452.186 10.0192C449.434 8.6601 446.236 7.91874 443.113 7.91874V7.94345Z" fill="black"/>
  <path d="M74.1455 104.147V100.662H107.983V103.133C107.983 109.929 113.833 113.562 121.493 113.562C129.153 113.562 135.153 110.572 135.153 104.443C135.153 101.132 133.368 98.8089 130.269 97.9934L104.091 91.3706C86.1931 86.8978 75.137 78.2981 75.137 57.4413C75.137 33.7673 92.8615 20.5218 120.527 20.5218C146.556 20.5218 163.958 34.2616 163.958 56.1315V59.1217H131.112V56.4775C131.112 51.6834 128.187 48.0261 120.378 48.0261C113.71 48.0261 109.793 50.349 109.793 55.1431C109.793 58.2815 111.255 59.9372 114.032 60.7774L143.482 68.7346C160.884 73.3804 169.833 84.13 169.833 101.675C169.833 124.534 150.646 141.091 121.37 141.091C92.0931 141.091 74.195 127.178 74.195 104.171L74.1455 104.147Z" fill="black"/>
  <path d="M182.798 22.8447H268.843V52.6472H218.42V65.2255H263.959V95.028H218.42V108.941H269.016V138.743H182.823V22.8447H182.798Z" fill="black"/>
  <path d="M283.617 22.8447H369.662V52.6472H319.24V65.2255H364.778V95.028H319.24V108.941H369.835V138.743H283.642V22.8447H283.617Z" fill="black"/>
  <path d="M694.603 138.743H658.806L654.096 121.198H619.118L614.557 138.743H578.786L618.474 22.8447H654.914L694.603 138.743ZM626.778 92.3838H646.461L636.694 55.2914L626.778 92.3838Z" fill="black"/>
  <path d="M716.715 53.4627H688.083V22.8447H781.118V53.4874H752.337V138.743H716.715V53.4627Z" fill="black"/>
  </svg>
  